# xmcd CD database file generated by Grip 3.0.7
# 
# Track frame offsets:
#       150
#       23335
#       41565
#       74240
#       96675
#       119105
#       136617
#       154060
#       169602
# 
# Disc length: 2532 seconds
# 
# Revision: 1
# Processed by: cddbd v1.5.1PL0 Copyright (c) Steve Scherf et al.
# Submitted via: Grip 3.0.7
# 
DISCID=7b09e209
DTITLE=Albert King - Albert
DYEAR=1976
DGENRE=Blues
TTITLE0=Guitar Man
TTITLE1=I'm Ready
TTITLE2=Ain't Nothing You Can Do
TTITLE3=I Don't Care What My Baby Do
TTITLE4=Change Of Pace
TTITLE5=My Babe
TTITLE6=Running Out Of Steam
TTITLE7=Rub My Back
TTITLE8=(Ain't It) A Real Good Sign
EXTD=
EXTT0=
EXTT1=
EXTT2=
EXTT3=
EXTT4=
EXTT5=
EXTT6=
EXTT7=
EXTT8=
PLAYORDER=
